<?xml version="1.0" standalone="no"?><!DOCTYPE svg PUBLIC "-//W3C//DTD SVG 1.1//EN" "http://www.w3.org/Graphics/SVG/1.1/DTD/svg11.dtd"><svg t="1642067017608" class="icon" viewBox="0 0 1024 1024" version="1.1" xmlns="http://www.w3.org/2000/svg" p-id="4402" xmlns:xlink="http://www.w3.org/1999/xlink" width="20" height="20"><defs><style type="text/css"></style></defs><path d="M665.6 640H358.4c-15.36 0-25.6 10.24-25.6 25.6s10.24 25.6 25.6 25.6h307.2c15.36 0 25.6-10.24 25.6-25.6 0-12.8-10.24-25.6-25.6-25.6z m0-153.6H358.4c-15.36 0-25.6 10.24-25.6 25.6s10.24 25.6 25.6 25.6h307.2c15.36 0 25.6-10.24 25.6-25.6 0-12.8-10.24-25.6-25.6-25.6zM640 76.8H281.6c-56.32 0-102.4 46.08-102.4 102.4v614.4c0 56.32 46.08 102.4 102.4 102.4h460.8c56.32 0 102.4-46.08 102.4-102.4v-512L640 76.8z m153.6 716.8c0 28.16-23.04 51.2-51.2 51.2H281.6c-28.16 0-51.2-23.04-51.2-51.2V179.2c0-28.16 23.04-51.2 51.2-51.2h307.2v102.4c0 56.32 46.08 102.4 102.4 102.4h102.4v460.8z m-102.4-512c-28.16 0-51.2-23.04-51.2-51.2V128l153.6 153.6H691.2z" p-id="4403" fill="#ffffff"></path></svg>