<?xml version="1.0" standalone="no"?><!DOCTYPE svg PUBLIC "-//W3C//DTD SVG 1.1//EN" "http://www.w3.org/Graphics/SVG/1.1/DTD/svg11.dtd"><svg t="1642067151018" class="icon" viewBox="0 0 1024 1024" version="1.1" xmlns="http://www.w3.org/2000/svg" p-id="3480" xmlns:xlink="http://www.w3.org/1999/xlink" width="20" height="20"><defs><style type="text/css"></style></defs><path d="M860.16 92.16A71.68 71.68 0 0 1 931.84 163.84v696.32a71.68 71.68 0 0 1-71.68 71.68H163.84A71.68 71.68 0 0 1 92.16 860.16V163.84A71.68 71.68 0 0 1 163.84 92.16h696.32M860.16 40.96H163.84a122.88 122.88 0 0 0-122.88 122.88v696.32a122.88 122.88 0 0 0 122.88 122.88h696.32a122.88 122.88 0 0 0 122.88-122.88V163.84a122.88 122.88 0 0 0-122.88-122.88z" p-id="3481" fill="#ffffff"></path><path d="M349.5936 338.5344a30.3104 30.3104 0 0 1 17.6128 5.9392l200.0896 143.36a30.72 30.72 0 0 1 0 49.9712l-200.0896 143.36a30.3104 30.3104 0 0 1-17.6128 5.9392A30.72 30.72 0 0 1 318.6688 655.36V368.64a30.72 30.72 0 0 1 30.9248-30.9248m0-51.2a81.92 81.92 0 0 0-81.92 81.92V655.36a81.92 81.92 0 0 0 81.92 81.92 81.92 81.92 0 0 0 47.3088-15.36l200.0896-143.36a81.92 81.92 0 0 0 0-133.5296l-200.0896-143.36a81.92 81.92 0 0 0-47.3088-14.9504zM715.5712 714.9568a25.6 25.6 0 0 1-25.6-25.6V334.6432a25.6 25.6 0 0 1 51.2 0v354.7136a25.6 25.6 0 0 1-25.6 25.6z" p-id="3482" fill="#ffffff"></path></svg>