<?xml version="1.0" standalone="no"?><!DOCTYPE svg PUBLIC "-//W3C//DTD SVG 1.1//EN" "http://www.w3.org/Graphics/SVG/1.1/DTD/svg11.dtd"><svg t="1642075041208" class="icon" viewBox="0 0 1024 1024" version="1.1" xmlns="http://www.w3.org/2000/svg" p-id="8516" xmlns:xlink="http://www.w3.org/1999/xlink" width="20" height="20"><defs><style type="text/css"></style></defs><path d="M950.458842 173.165877a16.538892 16.538892 0 0 0-1.684517-4.594137v-1.071965a20.673615 20.673615 0 0 0-3.062758-4.134723L787.673263 5.786162a20.673615 20.673615 0 0 0-4.134723-3.062758h-1.071965A24.502063 24.502063 0 0 0 777.106749 0.12006a15.313789 15.313789 0 0 0-3.828447 0H338.979243A82.388185 82.388185 0 0 0 256.437919 82.508246v675.184961a82.388185 82.388185 0 0 0 82.388186 82.388186H868.989484a82.388185 82.388185 0 0 0 82.235047-82.388186V176.994324a16.845168 16.845168 0 0 0-0.765689-3.828447z m-65.543018-15.313789h-47.779022a43.797437 43.797437 0 0 1-43.797437-43.797437V65.969353zM868.989484 801.490644H338.979243a43.797437 43.797437 0 0 1-43.797437-43.797437V82.508246a43.797437 43.797437 0 0 1 43.797437-43.797437h415.769374v75.190704a82.388185 82.388185 0 0 0 82.388185 82.388186h75.037567v561.403508A43.797437 43.797437 0 0 1 868.989484 801.490644z" p-id="8517" fill="#ffffff"></path><path d="M820.291634 840.081393v9.647687A43.797437 43.797437 0 0 1 777.106749 893.373379H246.94337a43.797437 43.797437 0 0 1-43.644299-43.644299V174.544118a43.797437 43.797437 0 0 1 43.644299-43.797437H256.437919V92.002795h-9.647687A82.694461 82.694461 0 0 0 164.555185 174.544118v675.184962a82.541323 82.541323 0 0 0 82.388185 82.388185H777.106749a82.541323 82.541323 0 0 0 82.388185-82.388185v-9.647687z" p-id="8518" fill="#ffffff"></path><path d="M728.255762 932.117265v9.49455A43.797437 43.797437 0 0 1 685.224014 985.409251H155.060635a43.797437 43.797437 0 0 1-43.797437-43.797436V266.426853a43.797437 43.797437 0 0 1 43.797437-43.644299H164.555185V183.885529h-9.49455A82.541323 82.541323 0 0 0 72.67245 266.426853v675.184962a82.388185 82.388185 0 0 0 82.388185 82.388185H685.224014a82.541323 82.541323 0 0 0 82.541324-82.388185v-9.49455z" p-id="8519" fill="#ffffff"></path><path d="M756.892547 221.863726a216.536978 216.536978 0 0 0-336.90336 267.99131 219.752874 219.752874 0 0 0 16.538892 22.817546 176.108575 176.108575 0 0 0 13.935548 15.313789 209.798911 209.798911 0 0 0 38.284473 30.627578 212.861669 212.861669 0 0 0 114.547143 32.771509A217.455805 217.455805 0 0 0 685.224014 575.152841a214.393048 214.393048 0 0 0 71.055982-47.013332c4.594137-4.747275 9.188273-9.800825 13.935548-15.313789a215.618151 215.618151 0 0 0-13.322997-290.961994z m-278.864099 27.258545a177.946229 177.946229 0 0 1 284.683339 205.970464 9.188273 9.188273 0 0 1-0.918827-1.684517c-2.450206-5.05355-4.900413-9.647687-7.656895-14.241824a140.12117 140.12117 0 0 0-9.035135-12.251031c0-0.765689-1.531379-1.684517-2.143931-2.603345a137.824102 137.824102 0 0 0-10.719652-10.413376l-1.837655-1.378241a93.260976 93.260976 0 0 0-10.87279-7.810033l-2.603344-1.531379a85.144667 85.144667 0 0 0-13.476135-6.738067l-3.062757-1.225103a128.942104 128.942104 0 0 0-13.629273-4.440999h-2.14393a110.871833 110.871833 0 0 0-16.385755-2.90962h-3.981585a170.595611 170.595611 0 0 0-17.917133-1.071965 19.295374 19.295374 0 0 0-11.791618 3.981585l-30.627578 23.430098-30.627578-23.430098a19.295374 19.295374 0 0 0-11.791618-3.981585 168.45168 168.45168 0 0 0-17.917133 1.071965h-3.981585a110.871833 110.871833 0 0 0-16.385754 2.90962h-2.297069a126.185622 126.185622 0 0 0-13.476134 4.440999l-3.062758 1.225103a85.144667 85.144667 0 0 0-13.476135 6.738067 15.313789 15.313789 0 0 0-2.603344 1.531379 93.260976 93.260976 0 0 0-10.87279 7.810033l-1.837655 1.378241a114.70028 114.70028 0 0 0-10.719652 10.413376l-2.14393 2.603345a118.37559 118.37559 0 0 0-9.035136 12.097893 125.573071 125.573071 0 0 0-7.656895 14.241824 9.188273 9.188273 0 0 1-0.918827 1.684517 176.721126 176.721126 0 0 1 32.924647-205.817326z m193.260018 290.961993a177.486816 177.486816 0 0 1-161.866751-13.629272 185.449986 185.449986 0 0 1-31.546405-24.961476c-1.684517-1.837655-3.675309-3.828447-5.359826-5.81924s0.765689-3.522171 1.225103-5.206689a40.428403 40.428403 0 0 1 2.14393-7.350618c0.918827-2.90962 1.990793-5.666102 3.062758-8.422584l2.756482-6.58493 4.287861-7.197481a41.500368 41.500368 0 0 1 3.675309-5.359826 138.589791 138.589791 0 0 1 9.49455-10.413376 72.127947 72.127947 0 0 1 6.431791-5.053551c1.531379-1.071965 3.062758-2.297068 4.900413-3.369033s5.05355-2.450206 7.656894-3.67531 3.522171-1.684517 5.359826-2.297068a71.515395 71.515395 0 0 1 9.800825-2.756482c1.684517 0 3.369034-1.071965 5.206689-1.378241a135.680172 135.680172 0 0 1 16.69203-1.837655l36.753094 28.33051a19.142236 19.142236 0 0 0 23.430097 0l36.906232-28.33051a135.680172 135.680172 0 0 1 16.69203 1.837655c1.684517 0 3.215896 0.918827 4.900412 1.378241a76.568946 76.568946 0 0 1 10.107101 2.756482 50.688642 50.688642 0 0 1 5.053551 2.297068c2.756482 1.225103 5.512964 2.297068 7.96317 3.67531l4.900412 3.369033c2.14393 1.684517 4.440999 3.215896 6.431792 5.053551a56.66102 56.66102 0 0 1 4.287861 4.287861 68.452637 68.452637 0 0 1 5.206688 6.125515c1.378241 1.684517 2.450206 3.522171 3.675309 5.359826s2.90962 4.747275 4.134724 7.197481 1.990793 4.287861 2.909619 6.58493l3.215896 8.269446c0 2.450206 1.378241 5.05355 2.143931 7.656894s0 3.369034 1.071965 5.053551l-5.359826 5.81924a178.711919 178.711919 0 0 1-58.345537 37.978197z" p-id="8520" fill="#ffffff"></path><path d="M602.070139 369.794929a74.884429 74.884429 0 1 1 74.884429-74.731291 74.884429 74.884429 0 0 1-74.884429 74.731291z m0-110.871833a36.29368 36.29368 0 1 0 36.140543 36.140542 36.140542 36.140542 0 0 0-36.140543-36.140542z" p-id="8521" fill="#ffffff"></path><path d="M800.843122 669.792058H406.513052a19.295374 19.295374 0 1 1 0-38.590749h394.33007a19.295374 19.295374 0 1 1 0 38.590749zM800.843122 751.873968H406.513052a19.448512 19.448512 0 0 1 0-38.743887h394.33007a19.448512 19.448512 0 1 1 0 38.743887z" p-id="8522" fill="#ffffff"></path></svg>