<?xml version="1.0" standalone="no"?><!DOCTYPE svg PUBLIC "-//W3C//DTD SVG 1.1//EN" "http://www.w3.org/Graphics/SVG/1.1/DTD/svg11.dtd"><svg t="1644983767844" class="icon" viewBox="0 0 1024 1024" version="1.1" xmlns="http://www.w3.org/2000/svg" p-id="7160" xmlns:xlink="http://www.w3.org/1999/xlink" width="20" height="20"><defs><style type="text/css"></style></defs><path d="M88.41888 940.181091a24.97296 24.97296 0 1 1 24.97296-24.972961 24.919023 24.919023 0 0 1-24.97296 24.972961z m0-32.955678a7.982717 7.982717 0 1 0 7.982717 7.982717 8.090592 8.090592 0 0 0-7.982717-7.982717z m0 0" fill="#F16723" p-id="7161"></path><path d="M833.670266 508.521045a5.070104 5.070104 0 1 0 2.535052-4.422856 5.070104 5.070104 0 0 0-2.535052 4.422856z m0 0M838.686433 51.348667a5.070104 5.070104 0 1 0 5.070104-5.070104 5.070104 5.070104 0 0 0-5.070104 5.070104z m0 0M38.526896 251.941409a5.070104 5.070104 0 1 0 5.070105-5.070105 5.070104 5.070104 0 0 0-5.070105 5.070105z m0 0M797.262602 36.569853a7.497282 7.497282 0 1 0 3.77561-6.526411 7.497282 7.497282 0 0 0-3.77561 6.526411z m0 0" fill="" p-id="7162"></path><path d="M882.807127 471.412197a28.74857 28.74857 0 1 1 20.388292-8.414215 28.694633 28.694633 0 0 1-20.388292 8.414215z m0-40.668708a11.866201 11.866201 0 1 0 11.866201 11.866201 11.866201 11.866201 0 0 0-11.866201-11.866201z m0 0" fill="#FBD20A" p-id="7163"></path><path d="M1001.738828 867.04214h-8.468153v-8.468153a8.468153 8.468153 0 0 0-16.936306 0v8.468153h-8.468153a8.468153 8.468153 0 0 0 0 16.936306h8.468153v8.468153a8.468153 8.468153 0 1 0 16.936306 0v-8.468153h8.468153a8.468153 8.468153 0 0 0 0-16.936306z m0 0" fill="#F16723" p-id="7164"></path><path d="M942.40782 709.059849h-0.485435a197.194693 197.194693 0 0 1 0-394.389385h0.485435a25.026898 25.026898 0 0 0 22.545783-36.569475 497.463526 497.463526 0 1 0 0 467.798022 24.97296 24.97296 0 0 0-22.276096-36.839162z m-309.815731 157.442918a71.197208 71.197208 0 1 1 71.197208-71.251145 71.35902 71.35902 0 0 1-71.197208 71.251145z m0 0" fill="#FFE4B8" p-id="7165"></path><path d="M942.40782 709.059849h-0.485435a197.194693 197.194693 0 0 1 0-394.389385h0.485435a25.026898 25.026898 0 0 0 22.545783-36.569475A497.517463 497.517463 0 0 0 523.261224 14.563443c-10.409895 0-20.81979 0.485436-31.229685 1.18662a497.841087 497.841087 0 0 1 405.068967 262.350926 24.97296 24.97296 0 0 1-22.545783 36.569475h-0.485435c-108.791492 0-180.258387 88.187451-180.258387 197.194693s71.197208 197.194693 180.258387 197.194692h0.485435a25.080835 25.080835 0 0 1 22.276097 37.054911 497.193839 497.193839 0 0 1-404.799281 262.135177c11.165017 0.701185 22.276096 1.18662 33.656863 1.18662a497.193839 497.193839 0 0 0 438.941577-263.321797 25.080835 25.080835 0 0 0-22.276096-37.054911z m0 0" fill="#E7D0A9" p-id="7166"></path><path d="M77.523549 511.865157c0-265.04779 217.529047-480.850844 478.963039-496.600529-10.787456-0.701185-22.060347-0.970871-33.171427-0.970871a497.355651 497.355651 0 0 0 2.427178 994.711302c10.409895 0 20.604041 0 30.744249-0.970871C296.077404 992.446314 77.523549 776.697197 77.523549 511.865157z m0 0" fill="#FFFFFF" p-id="7167"></path><path d="M170.241732 65.156611h-8.414216v-8.468153a8.468153 8.468153 0 1 0-16.936305 0v8.468153h-8.468153a8.468153 8.468153 0 0 0 0 16.936305h8.468153v8.522091a8.468153 8.468153 0 1 0 16.936305 0v-8.468153H170.241732a8.468153 8.468153 0 1 0 0-16.936306z m0 0" fill="#4E9BD4" p-id="7168"></path><path d="M903.141481 941.151962a5.070104 5.070104 0 1 0 5.070104-5.070105 5.070104 5.070104 0 0 0-5.070104 5.070105z m0 0M525.688402 1023.999622a511.379344 511.379344 0 0 1-457.388128-281.49866 14.617003 14.617003 0 1 1 26.429267-13.052821 483.170147 483.170147 0 0 0 857.602739 9.924459 10.787456 10.787456 0 0 0 0-10.787456 10.787456 10.787456 0 0 0-9.223275-5.070104h-0.485435a211.91957 211.91957 0 0 1-212.189257-211.649883 14.509128 14.509128 0 0 1 29.072194 0 182.793439 182.793439 0 0 0 182.631627 182.685564h0.485436a39.589963 39.589963 0 0 1 35.113168 58.360136 512.404152 512.404152 0 0 1-452.048336 271.088765z m106.84975-139.805427a89.158322 89.158322 0 1 1 89.158322-89.158323 89.21226 89.21226 0 0 1-89.158322 89.158323z m0-149.244452a60.086129 60.086129 0 1 0 60.086129 60.086129 60.086129 60.086129 0 0 0-60.086129-60.086129z m-565.909933-16.181183a14.401254 14.401254 0 0 1-13.322508-8.953589 526.91328 526.91328 0 0 1-23.732403-70.76571 14.509128 14.509128 0 1 1 28.101322-7.281533 503.558438 503.558438 0 0 0 22.276097 66.882227 14.347316 14.347316 0 0 1-7.766969 18.878047 11.057142 11.057142 0 0 1-5.393727 1.18662z m-30.043065-101.50996a14.724877 14.724877 0 0 1-14.293379-11.866201A461.379486 461.379486 0 0 1 13.823622 511.865157 511.163595 511.163595 0 0 1 523.261224 0.000378h2.642927a510.839971 510.839971 0 0 1 451.832587 271.304514 38.403343 38.403343 0 0 1-0.970871 38.511217 39.751775 39.751775 0 0 1-34.358047 19.201671h-0.485435a183.386749 183.386749 0 0 0-175.889467 133.494766 14.563065 14.563065 0 1 1-28.101323-7.766968 212.458943 212.458943 0 0 1 203.99079-154.799991h0.485435a10.787456 10.787456 0 0 0 9.439024-5.393728 9.924459 9.924459 0 0 0 0-9.924459 482.253213 482.253213 0 0 0-426.104505-255.824515h-2.427178A481.821715 481.821715 0 0 0 42.895816 511.865157a442.285689 442.285689 0 0 0 7.982717 88.187451 14.455191 14.455191 0 0 1-11.380766 16.936306 11.866201 11.866201 0 0 1-2.912613 0z m0 0" fill="" p-id="7169"></path><path d="M304.060122 264.293045c0 56.310519 32.632054 101.995395 72.923201 101.995395S449.906524 320.603565 449.906524 264.293045s-32.685991-101.995395-72.923201-101.995394S304.060122 207.982526 304.060122 264.293045z m0 0" fill="#EE3C7A" p-id="7170"></path><path d="M250.014968 264.293045c0 56.310519 32.632054 101.995395 72.923201 101.995395S395.861371 320.603565 395.861371 264.293045s-32.632054-101.995395-72.923202-101.995394S250.014968 207.982526 250.014968 264.293045z m0 0" fill="#FFFFFF" p-id="7171"></path><path d="M343.650085 366.28844c32.632054-0.647247 58.198324-46.817558 57.065641-103.182015S372.182905 161.812215 339.550851 162.351588 281.352527 209.169146 282.48521 265.479666 311.018031 366.773876 343.650085 366.28844z m0 0" fill="#F05F88" p-id="7172"></path><path d="M595.69899 211.2727c0 56.310519 32.632054 101.995395 72.923201 101.995395s72.923201-45.684875 72.923202-101.995395-32.632054-101.995395-72.923202-101.995395-72.923201 45.684875-72.923201 101.995395z m0 0" fill="#3769A5" p-id="7173"></path><path d="M541.438087 211.2727c0 56.310519 32.632054 101.995395 72.923202 101.995395s72.923201-45.684875 72.923201-101.995395-32.632054-101.995395-72.923201-101.995395-72.923201 45.630938-72.923202 101.995395z m0 0" fill="#FFFFFF" p-id="7174"></path><path d="M574.178016 211.2727c0 36.461601 11.272891 70.118463 29.557629 88.349263s40.83052 18.2308 59.331007 0 29.557629-51.887663 29.557629-88.349263-11.272891-70.118463-29.557629-88.349263-40.83052-18.2308-59.331007 0-29.557629 51.887663-29.557629 88.349263z m0 0" fill="#4E9BD4" p-id="7175"></path><path d="M174.934275 530.797142c0 56.310519 32.632054 101.995395 72.923202 101.995395s72.923201-45.684875 72.923201-101.995395S288.094687 428.801747 247.857477 428.801747 174.934275 474.648434 174.934275 530.797142z m0 0" fill="#FAAF1A" p-id="7176"></path><path d="M120.889122 530.797142c0 56.310519 32.632054 101.995395 72.923201 101.995395s72.923201-45.684875 72.923201-101.995395S234.103471 428.801747 193.812323 428.801747 120.889122 474.648434 120.889122 530.797142z m0 0" fill="#FFFFFF" p-id="7177"></path><path d="M153.359364 530.797142c0 36.461601 11.272891 70.118463 29.557629 88.349263s40.83052 18.2308 59.331007 0 29.557629-51.887663 29.557629-88.349263-11.48864-70.118463-29.773378-88.511075-40.83052-18.2308-59.331008 0-29.557629 51.887663-29.557628 88.349263z m0 0" fill="#FBD20A" p-id="7178"></path><path d="M301.848693 777.398382c0 56.310519 32.632054 101.995395 72.923202 101.995395s72.923201-45.684875 72.923201-101.995395-32.632054-101.995395-72.923201-101.995395-72.923201 45.684875-72.923202 101.995395z m0 0" fill="#F05225" p-id="7179"></path><path d="M247.857477 777.398382c0 36.461601 13.915818 70.118463 36.4616 88.349263a55.50146 55.50146 0 0 0 72.923202 0c22.545783-18.2308 36.461601-51.887663 36.461601-88.349263 0-56.310519-32.632054-101.995395-72.923202-101.995395s-72.923201 45.684875-72.923201 101.995395z m0 0" fill="#FFFFFF" p-id="7180"></path><path d="M280.327719 777.398382c0 36.461601 11.272891 70.118463 29.557629 88.349263s40.83052 18.2308 59.331007 0 29.557629-51.887663 29.557629-88.349263-11.272891-70.118463-29.557629-88.349263-40.83052-18.2308-59.331007 0-29.557629 51.887663-29.557629 88.349263z m0 0" fill="#F16723" p-id="7181"></path><path d="M347.91113 380.851506A116.504523 116.504523 0 1 1 464.415653 264.293045a116.720272 116.720272 0 0 1-116.504523 116.504523z m0-203.99079A87.43233 87.43233 0 1 0 435.343459 264.293045a87.594141 87.594141 0 0 0-87.432329-87.432329z m293.634547 151.024382A116.504523 116.504523 0 1 1 758.158075 211.2727a116.720272 116.720272 0 0 1-116.504523 116.504523z m0-203.99079a87.43233 87.43233 0 1 0 87.43233 87.432329A87.594141 87.594141 0 0 0 641.49174 124.05612zM220.727025 647.247727A116.504523 116.504523 0 1 1 337.447297 530.797142 116.720272 116.720272 0 0 1 220.727025 647.247727z m0-203.990789a87.43233 87.43233 0 1 0 87.43233 87.540204 87.540204 87.540204 0 0 0-87.43233-87.486267z m127.184105 450.59203a116.504523 116.504523 0 1 1 116.504523-116.504523 116.720272 116.720272 0 0 1-116.504523 116.504523z m0-203.99079a87.43233 87.43233 0 1 0 87.432329 87.43233 87.594141 87.594141 0 0 0-87.432329-87.43233z m0 0" fill="" p-id="7182"></path></svg>