<?xml version="1.0" standalone="no"?><!DOCTYPE svg PUBLIC "-//W3C//DTD SVG 1.1//EN" "http://www.w3.org/Graphics/SVG/1.1/DTD/svg11.dtd"><svg t="1642072802364" class="icon" viewBox="0 0 1024 1024" version="1.1" xmlns="http://www.w3.org/2000/svg" p-id="4337" xmlns:xlink="http://www.w3.org/1999/xlink" width="16" height="16"  style="background-color: #131417"><defs><style type="text/css"></style></defs><path d="M884.548467 313.816441c-24.626519 0-44.661653 18.85026-44.661653 42.238048v480.506601c0 56.685426-48.768316 102.935886-108.644822 102.935886H293.390838c-59.876506 0-108.658286-46.142744-108.658287-102.935886V356.054489c0-23.360858-20.035134-42.238048-44.648188-42.238048s-44.648188 18.85026-44.648188 42.238048v480.506601c0 103.393678 88.865513 187.425446 198.062379 187.425446h437.743438c109.223794 0 198.062378-84.031768 198.062379-187.425446V356.054489c-0.107716-23.360858-20.196708-42.238048-44.755904-42.238048z m95.247672-167.390312H749.217062l-93.308789-102.935885C630.837427 15.915006 594.32178 0 555.84032 0h-99.138905c-40.985852 0-78.88834 17.503813-104.080366 48.081628l-81.05612 98.290644H44.648188c-24.613054 0-44.648188 18.85026-44.648188 42.251512s20.035134 42.238048 44.648188 42.238047H293.390838a45.61763 45.61763 0 0 0 35.263451-16.251617l94.453269-114.609583a43.342134 43.342134 0 0 1 33.553463-15.564929h99.138905a43.813391 43.813391 0 0 1 32.462842 14.137695l106.584757 117.692947a45.604166 45.604166 0 0 0 33.890076 14.810919h251.058538c24.626519 0 44.661653-18.85026 44.661653-42.251512s-20.035134-42.359228-44.661653-42.359228zM438.726345 789.28733V406.425078c0-23.347394-20.035134-42.238048-44.661652-42.238048s-44.648188 18.85026-44.648189 42.238048V789.28733c0 23.347394 20.035134 42.238048 44.648189 42.238047s44.661653-18.85026 44.661652-42.238047z m236.301478 0V406.425078c0-23.347394-20.035134-42.238048-44.648188-42.238048s-44.648188 18.85026-44.648188 42.238048V789.28733c0 23.347394 20.035134 42.238048 44.648188 42.238047s44.648188-18.85026 44.648188-42.238047z m0 0" p-id="4338" fill="#ffffff"></path></svg>