<?xml version="1.0" standalone="no"?><!DOCTYPE svg PUBLIC "-//W3C//DTD SVG 1.1//EN" "http://www.w3.org/Graphics/SVG/1.1/DTD/svg11.dtd"><svg t="1644926125450" class="icon" viewBox="0 0 1194 1024" version="1.1" xmlns="http://www.w3.org/2000/svg" p-id="3706" xmlns:xlink="http://www.w3.org/1999/xlink" width="18" height="18"  style="background-color: #131417;"><defs><style type="text/css"></style></defs><path d="M980.365678 717.254713l-43.861309-43.576865 73.727959-73.386626L1194.666003 783.644009l-184.433675 183.352787-73.784848-73.386626 66.503074-65.991074h-170.495905v-110.364383h147.911029z m-36.977758-165.546575c-122.538599-0.227555-222.150988 98.417723-222.378543 220.273655a221.126988 221.126988 0 0 0 190.69145 218.908323 111.047049 111.047049 0 0 1-79.246178 33.109315H110.933272A110.648827 110.648827 0 0 1 0 913.635048V110.364383C0 49.379528 49.720861 0 110.990161 0h721.464488c61.269299 0 110.933272 49.379528 110.933271 110.364383v441.343755zM222.094099 220.728766v110.364383h499.427278v-110.364383h-499.484167z m0 220.728767v110.364383h499.427278v-110.364383h-499.484167z m0 220.671877v110.364383h499.427278v-110.364383h-499.484167z" fill="#54A8FF" p-id="3707"></path></svg>