<?xml version="1.0" standalone="no"?><!DOCTYPE svg PUBLIC "-//W3C//DTD SVG 1.1//EN" "http://www.w3.org/Graphics/SVG/1.1/DTD/svg11.dtd"><svg t="1644918518121" class="icon" viewBox="0 0 1024 1024" version="1.1" xmlns="http://www.w3.org/2000/svg" p-id="2752" xmlns:xlink="http://www.w3.org/1999/xlink" width="16" height="16"  style="background-color: #131417"><defs><style type="text/css"></style></defs><path d="M512 0C227.328 0 0 227.328 0 512s227.328 512 512 512c45.568 0 85.504-39.936 85.504-85.504 0-23.04-5.632-39.936-22.528-56.832-11.264-16.896-23.04-34.304-23.04-56.832 0-45.568 39.936-85.504 85.504-85.504h102.4c159.232 0 284.672-124.928 284.672-284.672C1024 204.8 796.672 0 512 0z" fill="#25D6C9" p-id="2753"></path><path d="M824.832 512c-45.568 0-85.504-39.936-85.504-85.504 0-45.568 39.936-85.504 85.504-85.504 45.568 0 85.504 39.936 85.504 85.504 0 45.568-39.936 85.504-85.504 85.504zM654.336 284.16c-45.568 0-85.504-39.936-85.504-85.504s39.936-85.504 85.504-85.504c45.568 0 85.504 39.936 85.504 85.504-0.512 46.08-39.936 85.504-85.504 85.504zM369.664 284.16c-45.568 0-85.504-39.936-85.504-85.504s39.936-85.504 85.504-85.504c45.568 0 85.504 39.936 85.504 85.504 0 46.08-39.936 85.504-85.504 85.504zM199.168 512c-45.568 0-85.504-39.936-85.504-85.504 0-45.568 39.936-85.504 85.504-85.504 45.568 0 85.504 39.936 85.504 85.504 0 45.568-39.936 85.504-85.504 85.504z" fill="#D7FFFF" p-id="2754"></path></svg>